<?xml version="1.0" standalone="no"?>
<!DOCTYPE svg PUBLIC "-//W3C//DTD SVG 20010904//EN"
 "http://www.w3.org/TR/2001/REC-SVG-20010904/DTD/svg10.dtd">
<svg version="1.0" xmlns="http://www.w3.org/2000/svg"
 width="1280.000000pt" height="938.000000pt" viewBox="0 0 1280.000000 938.000000"
 preserveAspectRatio="xMidYMid meet">
<metadata>
Created by potrace 1.15, written by Peter Selinger 2001-2017
</metadata>
<g transform="translate(0.000000,938.000000) scale(0.100000,-0.100000)"
fill="#00ff00" stroke="none">
<path d="M6375 9367 c-152 -51 -240 -145 -266 -283 -13 -69 -10 -88 35 -207
111 -297 121 -547 40 -1011 -32 -185 -78 -406 -84 -406 -3 0 -40 81 -83 180
-151 347 -232 607 -258 823 -9 81 -8 112 11 242 25 172 22 205 -24 301 -61
126 -158 193 -292 202 -170 11 -335 -94 -379 -240 -19 -67 -19 -180 1 -247 13
-45 30 -68 104 -142 114 -114 135 -154 160 -319 20 -133 5 -732 -19 -778 -5
-9 -30 12 -79 67 -117 129 -210 259 -262 366 -76 157 -82 202 -54 409 21 164
3 237 -83 344 -154 190 -482 144 -594 -83 -51 -105 -50 -233 3 -339 30 -59
115 -143 188 -187 l66 -39 13 -102 c15 -126 74 -426 137 -693 25 -110 59 -254
74 -321 15 -66 34 -133 43 -150 8 -16 88 -112 177 -214 179 -204 209 -244 247
-326 39 -85 30 -147 -40 -300 -84 -183 -99 -239 -105 -382 l-4 -122 36 -34
c109 -103 466 -162 1139 -187 540 -20 1106 16 1407 88 90 21 206 78 227 110
15 22 18 50 17 152 l0 126 -48 105 c-90 197 -127 290 -128 322 -4 114 56 209
304 482 149 165 158 184 218 428 101 414 190 862 190 961 0 53 4 57 69 93 132
71 214 185 232 323 8 64 6 80 -17 153 -24 74 -33 89 -93 149 -80 80 -137 103
-251 104 -64 0 -85 -5 -142 -32 -125 -59 -203 -159 -215 -276 -3 -31 2 -115
12 -190 16 -127 16 -140 1 -208 -31 -139 -135 -310 -310 -509 -61 -69 -92 -97
-96 -88 -14 26 -33 417 -28 573 9 250 58 397 176 526 94 102 107 134 107 259
0 96 -2 110 -29 160 -47 90 -90 136 -164 172 -61 30 -74 33 -162 33 -84 0
-102 -3 -151 -28 -127 -62 -198 -160 -206 -285 -3 -37 2 -115 11 -175 32 -216
11 -385 -85 -669 -57 -169 -215 -553 -239 -581 -9 -10 -29 75 -75 318 -102
538 -96 751 29 1100 40 112 43 140 20 229 -28 111 -96 196 -188 237 -61 26
-184 35 -241 16z m175 -195 c45 -22 70 -72 70 -140 0 -111 -49 -162 -155 -162
-109 0 -157 52 -157 168 0 48 4 71 19 90 28 39 80 62 138 62 28 0 66 -8 85
-18z m-1030 -201 c80 -57 79 -215 -2 -274 -40 -30 -115 -34 -171 -9 -59 26
-79 65 -79 148 0 90 31 136 107 155 43 11 116 1 145 -20z m2075 0 c46 -26 67
-75 63 -148 -6 -97 -50 -142 -148 -150 -58 -6 -125 28 -151 77 -37 68 -17 173
40 217 45 35 138 37 196 4z m-2940 -416 c73 -42 96 -134 56 -222 -25 -53 -62
-73 -139 -73 -105 0 -157 55 -157 167 0 47 5 69 21 90 47 65 145 82 219 38z
m3774 7 c56 -28 76 -63 76 -135 0 -74 -17 -113 -64 -144 -65 -44 -178 -24
-225 39 -31 43 -33 133 -4 182 42 71 141 98 217 58z m-2828 -439 c40 -122 138
-361 195 -476 75 -150 123 -221 239 -355 l97 -113 61 98 c114 186 184 397 248
745 12 70 25 126 27 124 2 -3 28 -109 57 -238 55 -239 101 -406 127 -468 9
-19 45 -86 80 -148 l65 -112 93 110 c130 153 182 233 263 400 77 160 88 188
158 375 l48 130 -6 -125 c-7 -146 9 -368 42 -600 25 -167 62 -380 68 -387 6
-6 150 98 233 168 102 85 249 242 354 377 56 73 80 97 80 82 0 -43 -90 -469
-124 -587 -35 -122 -81 -228 -109 -251 -11 -10 -37 -1 -131 43 -270 129 -587
206 -964 236 -203 17 -690 5 -867 -20 -333 -47 -619 -130 -814 -237 -60 -33
-65 -34 -87 -19 -55 36 -107 202 -193 620 -17 83 -36 168 -41 190 -5 21 -8 41
-6 43 2 1 42 -46 88 -105 163 -206 339 -376 512 -492 87 -59 76 -71 105 114
60 380 85 635 79 815 -2 71 -3 130 -2 130 1 0 12 -30 25 -67z m1211 -1218
c547 -46 797 -127 786 -254 -5 -56 -23 -58 -440 -32 -462 27 -793 27 -1343 0
-479 -24 -485 -24 -485 34 0 18 7 42 15 55 59 83 380 173 720 201 172 14 553
12 747 -4z m188 -506 c162 -10 449 -36 487 -44 l22 -5 -24 -43 c-46 -81 -57
-276 -20 -334 18 -26 19 -26 -60 -13 -120 20 -321 39 -533 51 -378 20 -1041
-1 -1287 -41 -33 -6 -74 -13 -91 -15 l-32 -5 14 37 c29 83 10 268 -35 331
l-22 31 23 5 c32 7 190 24 341 37 325 28 847 31 1217 8z m139 -633 c198 -24
301 -50 346 -89 42 -37 49 -75 20 -107 -39 -43 -182 -77 -430 -102 -166 -17
-1036 -17 -1214 0 -322 31 -451 74 -451 150 0 31 34 69 86 95 47 24 182 45
364 57 91 6 185 12 210 14 25 2 245 2 490 1 330 -2 480 -7 579 -19z"/>
<path d="M2013 9203 c-3 -10 -21 -65 -41 -123 l-37 -105 -122 -3 -123 -3 0
-113 0 -114 135 -78 135 -78 0 -83 c0 -46 -4 -83 -9 -83 -4 0 -38 -22 -74 -50
-82 -62 -175 -171 -220 -259 -38 -73 -46 -116 -49 -283 -1 -60 -3 -108 -4
-108 -2 0 -41 25 -86 57 -103 70 -237 133 -348 163 -107 30 -287 33 -394 7
-146 -36 -267 -98 -370 -188 -84 -73 -129 -130 -175 -219 -61 -118 -76 -191
-76 -360 1 -126 4 -153 24 -210 37 -103 94 -204 208 -365 211 -301 255 -379
307 -544 52 -166 84 -351 106 -611 8 -99 16 -136 36 -177 74 -152 299 -248
707 -300 193 -25 962 -25 1156 0 360 46 586 132 676 256 44 60 52 96 65 276
20 285 75 538 152 693 37 75 77 139 290 453 198 295 246 525 163 786 -62 197
-216 361 -429 458 -124 57 -193 70 -361 69 -141 0 -156 -2 -245 -32 -105 -35
-224 -99 -313 -167 -31 -25 -59 -45 -62 -45 -3 0 -5 35 -5 78 0 143 -18 262
-49 327 -35 77 -121 169 -228 247 l-84 61 3 75 3 76 133 78 132 79 0 114 0
115 -119 0 -118 0 -16 43 c-9 23 -29 79 -44 124 l-28 83 -98 0 c-86 0 -100 -2
-104 -17z m222 -1038 c99 -41 154 -176 155 -376 0 -178 -32 -274 -166 -486
-48 -76 -91 -143 -96 -150 -20 -25 -209 288 -253 418 -22 65 -26 91 -26 209 0
218 39 322 142 376 65 34 174 38 244 9z m-1119 -455 c158 -40 331 -149 495
-310 145 -143 221 -257 293 -438 43 -108 84 -280 88 -372 l3 -65 -35 -17
c-131 -63 -439 -101 -926 -113 l-222 -5 -115 153 c-210 278 -292 431 -312 577
-9 66 27 236 67 317 40 82 113 163 181 201 45 26 170 71 232 85 53 12 177 6
251 -13z m2308 4 c93 -24 179 -71 251 -136 116 -107 175 -245 175 -413 0 -162
-54 -275 -269 -561 l-158 -209 -224 3 c-394 5 -677 30 -814 73 -82 25 -142 54
-147 71 -5 13 14 146 31 223 46 201 139 393 263 537 180 210 432 380 623 418
69 14 204 11 269 -6z m-1253 -1460 c89 -31 185 -43 644 -79 259 -20 476 -39
482 -41 9 -2 10 -10 3 -28 -24 -65 -70 -353 -70 -445 0 -70 -6 -74 -80 -51
-426 129 -1225 158 -1775 65 -80 -14 -316 -68 -348 -81 -9 -3 -17 37 -30 148
-15 131 -28 206 -63 371 l-6 27 58 0 c76 0 527 35 714 55 167 18 296 39 360
59 59 19 60 19 111 0z m344 -794 c264 -18 421 -53 477 -107 58 -56 17 -91
-144 -123 -145 -29 -289 -41 -603 -47 -548 -11 -1000 38 -1028 110 -9 25 17
60 62 83 74 37 247 66 496 83 164 12 569 12 740 1z"/>
<path d="M9602 8592 l-93 -87 1 -300 0 -300 285 -249 285 -248 0 -652 0 -651
-330 -330 -330 -330 0 -230 0 -231 58 -57 58 -57 1510 0 1510 0 62 63 62 63 0
221 0 221 -330 334 -329 333 0 655 0 655 285 248 284 247 0 293 0 292 -93 93
-92 92 -295 0 -295 0 -57 -51 -58 -51 0 -89 0 -89 -90 0 -90 0 0 82 0 82 -57
58 -57 58 -361 0 -361 0 -52 -53 -52 -53 0 -87 0 -87 -95 0 -95 0 0 88 0 88
-53 52 -53 52 -294 0 -295 -1 -93 -87z m578 -259 l0 -87 47 -48 47 -48 216 0
215 0 48 46 47 45 0 85 0 84 245 0 245 0 0 -84 0 -84 51 -46 51 -46 212 0 211
1 48 44 47 43 0 91 0 91 183 0 183 0 42 -43 42 -43 0 -184 0 -185 -221 -177
-221 -178 -871 0 -872 1 -222 180 -223 180 0 175 0 175 42 50 41 49 184 0 183
0 0 -87z m1610 -1518 l0 -575 -740 0 -740 0 0 575 0 575 740 0 740 0 0 -575z
m223 -982 c106 -102 201 -194 212 -205 19 -18 -13 -18 -1175 -18 l-1195 1 210
204 210 204 773 1 773 0 192 -187z m437 -578 l0 -125 -1405 0 -1405 0 0 125 0
125 1405 0 1405 0 0 -125z"/>
<path d="M6370 4484 c-130 -34 -221 -104 -269 -204 -24 -50 -26 -66 -26 -175
1 -107 4 -127 27 -183 15 -35 45 -89 66 -122 l39 -58 -31 -6 c-152 -29 -558
-331 -721 -536 -234 -297 -275 -612 -121 -946 45 -96 143 -246 229 -349 37
-44 67 -84 67 -90 0 -5 -18 -75 -39 -155 -99 -369 -96 -354 -77 -405 40 -104
148 -160 416 -212 55 -11 -269 -97 -435 -115 -70 -8 -167 -9 -322 -2 -122 5
-250 6 -285 2 -145 -17 -308 -141 -416 -317 l-51 -84 86 -126 c160 -233 257
-347 324 -381 l35 -18 19 34 c20 37 51 61 99 75 35 11 463 69 686 94 370 42
580 110 768 252 l84 63 61 -46 c201 -151 526 -242 1052 -294 312 -32 414 -54
482 -106 19 -14 39 -37 45 -50 l11 -24 48 27 c96 52 187 163 367 449 l33 52
-36 61 c-69 118 -167 223 -258 280 -49 29 -147 60 -202 62 -28 1 -153 -2 -280
-6 -294 -10 -438 9 -685 89 -60 19 -70 25 -50 29 14 3 59 12 101 21 209 42
329 132 329 246 0 39 -25 133 -84 320 -19 58 -36 125 -40 150 -6 44 -4 47 50
110 80 93 196 271 244 373 23 48 53 132 66 185 23 85 25 111 21 217 -9 222
-86 401 -250 583 -175 195 -509 437 -664 483 -24 7 -43 14 -43 16 0 2 11 19
24 36 60 81 106 213 106 307 0 53 -29 171 -54 219 -45 85 -153 160 -266 181
-75 14 -215 11 -280 -6z m221 -235 c51 -17 99 -57 115 -95 30 -72 10 -179 -43
-226 -82 -75 -249 -56 -310 35 -29 42 -39 113 -23 162 15 46 65 104 105 121
37 16 111 18 156 3z m69 -659 c98 -34 225 -101 341 -178 323 -217 508 -439
555 -665 13 -62 13 -76 -6 -170 -54 -268 -107 -347 -271 -403 -187 -63 -719
-93 -1134 -64 -414 30 -540 91 -611 300 -41 121 -60 259 -46 339 16 97 95 247
185 351 170 198 483 416 709 495 89 31 179 30 278 -5z m-675 -1660 c288 -27
898 -22 1154 11 41 5 76 7 78 6 2 -2 -4 -23 -12 -47 -19 -55 -19 -180 0 -227
8 -19 15 -37 15 -39 0 -1 -15 2 -32 7 -134 38 -679 60 -988 40 -169 -11 -326
-31 -362 -46 -17 -7 -17 -5 -3 29 27 65 30 144 6 213 -26 78 -26 76 7 69 15
-3 77 -10 137 -16z m1102 -455 c121 -23 198 -77 191 -134 -4 -33 -50 -56 -138
-71 -201 -33 -1154 -39 -1272 -8 -76 20 -108 42 -108 74 0 35 27 78 62 98 29
18 177 38 409 56 162 12 766 2 856 -15z m-499 -409 c26 -14 94 -59 152 -101
111 -80 263 -160 370 -195 106 -34 215 -48 595 -76 391 -28 433 -36 501 -96
48 -43 61 -95 35 -152 -24 -55 -57 -78 -113 -78 -24 0 -120 11 -215 26 -95 14
-210 26 -255 26 -89 0 -304 27 -483 61 -291 55 -504 164 -608 309 -23 32 -45
59 -48 59 -3 1 -10 -9 -16 -21 -6 -13 -30 -45 -53 -71 -164 -185 -550 -307
-1070 -337 -91 -5 -232 -20 -314 -33 -191 -31 -232 -24 -263 50 -50 121 39
208 242 238 55 8 210 19 345 24 330 14 509 42 663 107 72 31 93 43 177 109
143 112 244 175 283 175 15 0 49 -11 75 -24z"/>
<path d="M6404 3226 c-3 -7 -4 -70 -2 -139 l3 -126 -110 -3 -110 -3 0 -125 0
-125 110 -3 110 -3 -3 -139 -3 -140 120 0 121 0 0 140 0 140 110 0 110 0 0
130 0 130 -110 0 -110 0 0 140 0 140 -115 0 c-89 0 -117 -3 -121 -14z"/>
<path d="M1747 3977 c-44 -19 -124 -105 -185 -197 -31 -47 -57 -87 -58 -89 -2
-2 -43 20 -92 49 -177 101 -323 147 -507 159 -66 4 -121 6 -123 5 -2 -1 5 -62
14 -135 25 -198 22 -322 -10 -443 -50 -186 -97 -298 -316 -761 -232 -492 -408
-915 -454 -1093 l-17 -63 31 -57 c141 -265 374 -387 584 -306 11 4 16 1 16
-13 0 -26 41 -80 84 -111 37 -26 128 -52 184 -52 82 0 106 28 306 347 65 104
262 299 378 376 81 53 255 147 273 147 12 0 -5 -105 -27 -173 -38 -118 -62
-156 -295 -472 -183 -249 -260 -382 -321 -556 -31 -88 -66 -241 -77 -336 l-6
-53 1364 0 1364 0 7 73 c14 171 18 609 7 792 -58 929 -324 1590 -842 2090
-198 192 -364 293 -569 346 -83 21 -243 30 -287 15 -20 -6 -24 2 -62 117 -64
190 -128 282 -255 368 -64 43 -68 44 -109 26z m-545 -365 l83 -38 -78 -38
c-71 -34 -163 -66 -193 -66 -8 0 -11 27 -10 83 0 45 -3 97 -7 115 l-9 32 66
-24 c36 -14 103 -42 148 -64z m627 13 c11 -24 34 -98 51 -164 36 -145 64 -223
88 -244 14 -13 56 -16 252 -19 l235 -3 81 -44 c157 -84 366 -283 534 -505 382
-510 571 -1166 545 -1901 -4 -115 -10 -241 -14 -280 l-6 -70 -1073 -3 -1074
-2 7 32 c32 147 97 262 376 663 82 118 197 346 233 461 48 157 71 352 52 441
-9 40 25 183 94 393 28 85 54 180 57 211 5 53 4 58 -20 74 -47 31 -100 -5
-179 -124 -98 -144 -165 -304 -201 -480 -9 -40 -17 -74 -19 -74 -407 -198
-593 -356 -836 -710 -131 -192 -129 -190 -166 -183 -61 12 -68 37 -37 128 36
104 -11 116 -156 37 -89 -48 -98 -51 -146 -45 -115 13 -247 112 -280 209 -13
39 -13 47 8 107 38 114 112 274 333 725 276 565 358 742 412 893 l23 63 81 39
c45 21 131 55 191 76 265 89 401 178 477 312 34 60 43 59 77 -13z"/>
<path d="M1141 2905 c-115 -32 -232 -122 -271 -207 -28 -62 -27 -156 2 -193
20 -26 25 -27 89 -23 197 15 447 241 403 366 -21 59 -122 85 -223 57z"/>
<path d="M393 1660 c-64 -39 -85 -217 -30 -252 20 -13 87 -9 121 7 49 23 71
68 71 147 0 57 -4 70 -24 92 -30 32 -91 35 -138 6z"/>
<path d="M11272 3955 c-144 -32 -305 -143 -364 -252 -79 -145 -74 -345 12
-532 17 -35 30 -66 30 -70 0 -4 -15 -13 -34 -19 -99 -36 -252 -165 -315 -267
-74 -117 -106 -311 -77 -457 41 -208 140 -358 284 -430 l63 -31 -53 -30 c-330
-185 -505 -351 -632 -596 -88 -170 -145 -382 -165 -618 -12 -134 -15 -384 -5
-457 l7 -46 1383 0 1383 0 7 36 c4 20 4 145 1 278 -9 418 -71 664 -224 895
-123 184 -318 355 -561 492 l-83 47 38 15 c58 23 157 100 202 157 91 115 126
230 126 410 -1 193 -50 322 -168 439 -72 71 -114 101 -208 147 l-69 34 29 53
c54 95 84 202 85 302 1 110 -20 183 -76 271 -120 192 -366 283 -616 229z m244
-230 c67 -28 115 -67 145 -120 25 -43 29 -61 29 -125 0 -67 -4 -82 -35 -140
-69 -128 -79 -154 -83 -220 -4 -60 -2 -67 23 -92 15 -15 73 -58 128 -95 127
-83 203 -159 244 -243 42 -87 57 -171 50 -277 -11 -151 -61 -223 -236 -338
-109 -72 -141 -106 -141 -154 0 -85 83 -170 282 -290 236 -141 401 -308 501
-506 69 -137 122 -350 132 -532 3 -54 8 -117 10 -140 l5 -43 -1160 0 -1160 0
0 93 c0 112 21 274 49 383 77 300 248 517 585 742 87 59 179 126 203 150 51
49 88 122 79 157 -9 37 -54 83 -136 141 -133 93 -194 172 -225 291 -31 120 -5
260 70 373 51 77 102 123 225 202 122 80 135 96 135 171 -1 53 -8 77 -47 162
-89 189 -93 218 -49 310 55 116 147 170 272 161 37 -3 84 -12 105 -21z"/>
</g>
</svg>
